<?xml version="1.0" encoding="UTF-8"?>
<!-- 8-point compass glyph, monochrome (colored via ColorFilter.srcIn in CompassDivider). -->
<svg xmlns="http://www.w3.org/2000/svg" viewBox="0 0 64 64" fill="currentColor">
  <circle cx="32" cy="32" r="3"/>
  <path d="M32 4 L35 30 L32 26 L29 30 Z"/>
  <path d="M60 32 L34 35 L38 32 L34 29 Z"/>
  <path d="M32 60 L29 34 L32 38 L35 34 Z"/>
  <path d="M4 32 L30 29 L26 32 L30 35 Z"/>
  <path d="M52 12 L38 26 L40 22 L36 24 Z" opacity="0.55"/>
  <path d="M52 52 L38 38 L40 42 L36 40 Z" opacity="0.55"/>
  <path d="M12 52 L26 38 L24 42 L28 40 Z" opacity="0.55"/>
  <path d="M12 12 L26 26 L24 22 L28 24 Z" opacity="0.55"/>
  <circle cx="32" cy="32" r="20" fill="none" stroke="currentColor" stroke-width="1" opacity="0.4"/>
</svg>
